<svg width="69" height="46" viewBox="0 0 69 46" fill="none" xmlns="http://www.w3.org/2000/svg">
<path d="M10.5158 4.22616C9.07973 5.23513 8.91188 7.35378 10.2155 8.5735L10.2883 8.6108C11.3383 9.60858 12.8732 9.6608 14.0518 8.79543C16.4465 6.99197 19.0874 6.14153 21.4615 6.34855C23.9084 6.59287 25.6839 8.14642 26.2453 10.4553C27.7224 16.1734 22.6607 21.3861 18.1903 25.9834C17.5991 26.5988 17.0452 27.1415 16.564 27.7215C13.0895 31.4516 9.10396 35.1032 3.94348 39.2547C3.31684 39.7602 2.7275 40.1928 2.10085 40.6983C1.14224 41.4928 0.616304 42.8766 1.11613 44.0515C1.50591 45.2619 2.63238 45.9315 3.80174 45.98C4.16728 45.9837 4.57012 45.9147 4.93753 45.7357C5.08486 45.6275 20.9113 38.7699 36.8683 33.449C54.806 27.4903 62.488 27.0203 65.7368 27.4922C66.8689 27.6134 68.0811 27.0409 68.6406 25.9498C69.6086 24.2415 68.5343 22.037 66.4903 21.7237C61.8539 21.0915 53.1443 21.9531 35.0966 27.9472C29.3374 29.8626 23.6492 31.998 18.6211 33.9208C19.3596 33.1972 20.0255 32.4363 20.764 31.7127C21.2452 31.1326 21.7991 30.5899 22.353 30.0472C27.3046 24.87 34.1399 17.8109 31.8534 9.01365C30.6579 4.35859 26.8887 1.13958 22.105 0.615508C21.5939 0.537177 21.1557 0.49615 20.6801 0.527855C17.2074 0.492417 13.6471 1.88184 10.5158 4.22616Z" fill="url(#paint0_linear_257_103)"/>
<defs>
<linearGradient id="paint0_linear_257_103" x1="8.78936" y1="74.8107" x2="46.0896" y2="2.0754" gradientUnits="userSpaceOnUse">
<stop stop-color="#58338F"/>
<stop offset="0.3" stop-color="#58338F"/>
<stop offset="0.64" stop-color="#7D48E1"/>
<stop offset="1" stop-color="#7D48E1"/>
</linearGradient>
</defs>
</svg>
