<svg width="128" height="45" viewBox="0 0 128 45" fill="none" xmlns="http://www.w3.org/2000/svg">
<path d="M100.096 28.9813V13.3965H107.216V28.9813C107.216 29.6939 107.358 30.3635 107.634 31.0063C107.91 31.6409 108.293 32.1974 108.782 32.6755C109.272 33.1449 109.832 33.5187 110.473 33.7965C111.123 34.066 111.809 34.1966 112.538 34.1966C113.286 34.1966 113.989 34.066 114.648 33.7965C115.306 33.5187 115.885 33.1449 116.374 32.6755C116.855 32.1974 117.238 31.6409 117.514 31.0063C117.798 30.3635 117.932 29.6939 117.932 28.9813V13.3965H125.052V40.6722H119.507V39.1423C118.751 39.638 117.95 40.0464 117.086 40.3768C115.636 40.9241 114.123 41.2024 112.538 41.2024C110.838 41.2024 109.228 40.8808 107.714 40.2462C106.201 39.6117 104.884 38.7339 103.754 37.6213C102.623 36.5174 101.734 35.2137 101.075 33.7273C100.425 32.2408 100.096 30.6588 100.096 28.9813Z" fill="#121133"/>
<path d="M69.5158 4.12816C68.0797 5.11353 67.9119 7.18262 69.2155 8.3738L69.2883 8.41023C70.3383 9.38467 71.8732 9.43567 73.0518 8.59055C75.4465 6.82927 78.0874 5.99873 80.4615 6.2009C82.9084 6.43951 84.6839 7.95671 85.2453 10.2116C86.7224 15.7959 81.6607 20.8867 77.1903 25.3764C76.5991 25.9774 76.0452 26.5075 75.564 27.0739C72.0895 30.7167 68.104 34.2829 62.9435 38.3373C62.3168 38.8309 61.7275 39.2535 61.1009 39.7471C60.1422 40.523 59.6163 41.8744 60.1161 43.0219C60.5059 44.204 61.6324 44.8579 62.8017 44.9052C63.1673 44.9089 63.5701 44.8415 63.9375 44.6666C64.0849 44.561 79.9113 37.8638 95.8683 32.6674C113.806 26.8481 121.488 26.3891 124.737 26.8499C125.869 26.9683 127.081 26.4091 127.641 25.3436C128.609 23.6753 127.534 21.5224 125.49 21.2164C120.854 20.5989 112.144 21.4404 94.0966 27.2943C88.3374 29.1649 82.6492 31.2503 77.6211 33.1282C78.3596 32.4215 79.0255 31.6784 79.764 30.9717C80.2452 30.4052 80.7991 29.8752 81.353 29.3452C86.3046 24.289 93.1399 17.3951 90.8534 8.80366C89.6579 4.25749 85.8887 1.11379 81.105 0.601975C80.5939 0.525477 80.1557 0.485409 79.6801 0.516373C76.2074 0.481764 72.6471 1.83869 69.5158 4.12816Z" fill="url(#paint0_linear_271_918)"/>
<path d="M63.5305 25.1283V40.7132H56.4103V25.1283C56.4103 24.4158 56.268 23.7462 55.9921 23.1033C55.7161 22.4688 55.3333 21.9122 54.8438 21.4341C54.3542 20.9648 53.7938 20.591 53.153 20.3127C52.5033 20.0437 51.8176 19.9131 51.088 19.9131C50.3405 19.9131 49.6373 20.0437 48.9786 20.3127C48.3199 20.591 47.7415 20.9648 47.2519 21.4341C46.7714 21.9122 46.3886 22.4688 46.1127 23.1033C45.8277 23.7462 45.6945 24.4158 45.6945 25.1283V40.7132H38.5742V13.4375H44.119V14.9673C44.8755 14.4717 45.6765 14.0632 46.5398 13.7328C47.9905 13.1855 49.5036 12.9072 51.088 12.9072C52.7878 12.9072 54.3987 13.2289 55.9117 13.8634C57.4248 14.498 58.7422 15.3757 59.8726 16.4884C61.0029 17.5922 61.8927 18.8959 62.5514 20.3824C63.2011 21.8688 63.5305 23.4508 63.5305 25.1283Z" fill="#121133"/>
<path d="M31.9872 13.438V40.7132H24.823V20.3654H10.583V40.7132H3.46136V20.3654H0V13.438H3.46136V12.1426C3.46136 10.4656 3.79214 8.88269 4.44094 7.40501C5.10013 5.92733 5.98945 4.64117 7.12875 3.5456C8.26851 2.45142 9.59446 1.59028 11.1075 0.94651C12.6201 0.312889 14.231 0 15.9572 0H21.2979V6.9186H15.9572C15.1926 6.9186 14.4801 7.05751 13.8308 7.31825C13.1806 7.57853 12.6116 7.94495 12.1405 8.41382C11.6585 8.88269 11.2762 9.43093 11.0007 10.0646C10.7253 10.7088 10.583 11.3946 10.583 12.1426V13.438H31.9872Z" fill="#121133"/>
<defs>
<linearGradient id="paint0_linear_271_918" x1="67.7894" y1="73.0615" x2="103.711" y2="1.33715" gradientUnits="userSpaceOnUse">
<stop stop-color="#58338F"/>
<stop offset="0.3" stop-color="#58338F"/>
<stop offset="0.64" stop-color="#7D48E1"/>
<stop offset="1" stop-color="#7D48E1"/>
</linearGradient>
</defs>
</svg>
