<?xml version="1.0" encoding="UTF-8" standalone="no"?>
<!DOCTYPE svg PUBLIC "-//W3C//DTD SVG 1.1//EN" "http://www.w3.org/Graphics/SVG/1.1/DTD/svg11.dtd">
<svg width="100%" height="100%" viewBox="0 0 128 45" version="1.1" xmlns="http://www.w3.org/2000/svg" xmlns:xlink="http://www.w3.org/1999/xlink" xml:space="preserve" xmlns:serif="http://www.serif.com/" style="fill-rule:evenodd;clip-rule:evenodd;stroke-linejoin:round;stroke-miterlimit:2;">
    <path d="M100.096,28.981L100.096,13.397L107.216,13.397L107.216,28.981C107.216,29.694 107.358,30.363 107.634,31.006C107.91,31.641 108.293,32.197 108.782,32.676C109.272,33.145 109.832,33.519 110.473,33.797C111.123,34.066 111.809,34.197 112.538,34.197C113.286,34.197 113.989,34.066 114.648,33.797C115.306,33.519 115.885,33.145 116.374,32.676C116.855,32.197 117.238,31.641 117.514,31.006C117.798,30.363 117.932,29.694 117.932,28.981L117.932,13.397L125.052,13.397L125.052,40.672L119.507,40.672L119.507,39.142C118.751,39.638 117.95,40.046 117.086,40.377C115.636,40.924 114.123,41.202 112.538,41.202C110.838,41.202 109.228,40.881 107.714,40.246C106.201,39.612 104.884,38.734 103.754,37.621C102.623,36.517 101.734,35.214 101.075,33.727C100.425,32.241 100.096,30.659 100.096,28.981Z" style="fill:white;fill-rule:nonzero;"/>
    <path d="M69.516,4.128C68.08,5.114 67.912,7.183 69.216,8.374L69.288,8.41C70.338,9.385 71.873,9.436 73.052,8.591C75.447,6.829 78.087,5.999 80.462,6.201C82.908,6.44 84.684,7.957 85.245,10.212C86.722,15.796 81.661,20.887 77.19,25.376C76.599,25.977 76.045,26.508 75.564,27.074C72.09,30.717 68.104,34.283 62.944,38.337C62.317,38.831 61.728,39.254 61.101,39.747C60.142,40.523 59.616,41.874 60.116,43.022C60.506,44.204 61.632,44.858 62.802,44.905C63.167,44.909 63.57,44.842 63.938,44.667C64.085,44.561 79.911,37.864 95.868,32.667C113.806,26.848 121.488,26.389 124.737,26.85C125.869,26.968 127.081,26.409 127.641,25.344C128.609,23.675 127.534,21.522 125.49,21.216C120.854,20.599 112.144,21.44 94.097,27.294C88.337,29.165 82.649,31.25 77.621,33.128C78.36,32.422 79.025,31.678 79.764,30.972C80.245,30.405 80.799,29.875 81.353,29.345C86.305,24.289 93.14,17.395 90.853,8.804C89.658,4.257 85.889,1.114 81.105,0.602C80.594,0.525 80.156,0.485 79.68,0.516C76.207,0.482 72.647,1.839 69.516,4.128Z" style="fill:url(#_Linear1);fill-rule:nonzero;"/>
    <path d="M63.531,25.128L63.531,40.713L56.41,40.713L56.41,25.128C56.41,24.416 56.268,23.746 55.992,23.103C55.716,22.469 55.333,21.912 54.844,21.434C54.354,20.965 53.794,20.591 53.153,20.313C52.503,20.044 51.818,19.913 51.088,19.913C50.341,19.913 49.637,20.044 48.979,20.313C48.32,20.591 47.742,20.965 47.252,21.434C46.771,21.912 46.389,22.469 46.113,23.103C45.828,23.746 45.695,24.416 45.695,25.128L45.695,40.713L38.574,40.713L38.574,13.438L44.119,13.438L44.119,14.967C44.876,14.472 45.676,14.063 46.54,13.733C47.99,13.185 49.504,12.907 51.088,12.907C52.788,12.907 54.399,13.229 55.912,13.863C57.425,14.498 58.742,15.376 59.873,16.488C61.003,17.592 61.893,18.896 62.551,20.382C63.201,21.869 63.531,23.451 63.531,25.128Z" style="fill:white;fill-rule:nonzero;"/>
    <path d="M31.987,13.438L31.987,40.713L24.823,40.713L24.823,20.365L10.583,20.365L10.583,40.713L3.461,40.713L3.461,20.365L0,20.365L0,13.438L3.461,13.438L3.461,12.143C3.461,10.466 3.792,8.883 4.441,7.405C5.1,5.927 5.989,4.641 7.129,3.546C8.269,2.451 9.594,1.59 11.108,0.947C12.62,0.313 14.231,0 15.957,0L21.298,0L21.298,6.919L15.957,6.919C15.193,6.919 14.48,7.058 13.831,7.318C13.181,7.579 12.612,7.945 12.141,8.414C11.659,8.883 11.276,9.431 11.001,10.065C10.725,10.709 10.583,11.395 10.583,12.143L10.583,13.438L31.987,13.438Z" style="fill:white;fill-rule:nonzero;"/>
    <defs>
        <linearGradient id="_Linear1" x1="0" y1="0" x2="1" y2="0" gradientUnits="userSpaceOnUse" gradientTransform="matrix(35.9216,-71.7244,71.7244,35.9216,67.7894,73.0615)"><stop offset="0" style="stop-color:rgb(88,51,143);stop-opacity:1"/><stop offset="0.3" style="stop-color:rgb(88,51,143);stop-opacity:1"/><stop offset="0.64" style="stop-color:rgb(125,72,225);stop-opacity:1"/><stop offset="1" style="stop-color:rgb(125,72,225);stop-opacity:1"/></linearGradient>
    </defs>
</svg>
